<svg xmlns="http://www.w3.org/2000/svg" viewBox="0 0 100 100" width="100" height="100">
  <circle cx="50" cy="50" r="46" fill="#1a1a2e" stroke="#f97316" stroke-width="3"/>
  <path d="M50 20 C45 35, 30 45, 35 60 C38 68, 44 72, 50 75 C56 72, 62 68, 65 60 C70 45, 55 35, 50 20Z" fill="#f97316"/>
  <path d="M50 35 C48 42, 40 48, 43 56 C45 60, 47 62, 50 64 C53 62, 55 60, 57 56 C60 48, 52 42, 50 35Z" fill="#fb923c"/>
  <path d="M50 45 C49 49, 45 52, 47 56 C48 58, 49 59, 50 60 C51 59, 52 58, 53 56 C55 52, 51 49, 50 45Z" fill="#fde68a"/>
</svg>
